<?xml version="1.0" encoding="UTF-8" standalone="no"?>
<svg width="23px" height="23px" viewBox="0 0 23 23" version="1.1" xmlns="http://www.w3.org/2000/svg" xmlns:xlink="http://www.w3.org/1999/xlink">
    <g stroke="none" stroke-width="1" fill="none" fill-rule="evenodd">
        <path d="M22.4962361,20.4112222 L15.6684306,13.5830972 C16.6583889,12.1800972 17.2420139,10.4691528 17.2420139,8.62116667 C17.2420139,3.85952778 13.3824861,0 8.62116667,0 C3.86016667,0 0,3.85952778 0,8.62116667 C0,13.3818472 3.86016667,17.2416944 8.62116667,17.2416944 C10.4784167,17.2416944 12.1970278,16.6529583 13.6041806,15.6540556 L20.4284722,22.4789861 C21.0545833,23.1047778 22.0320833,23.1520556 22.6006944,22.583125 C23.1693056,22.0148333 23.1223472,21.0370139 22.4962361,20.4112222 L22.4962361,20.4112222 Z M2.875,8.62116667 C2.875,5.45291667 5.45259722,2.875 8.62116667,2.875 C11.7894167,2.875 14.3670139,5.45291667 14.3670139,8.62116667 C14.3670139,11.7894167 11.7894167,14.3666944 8.62116667,14.3666944 C5.45259722,14.3666944 2.875,11.7894167 2.875,8.62116667 L2.875,8.62116667 Z" id="Fill-466" fill="#9B9B9B"></path>
    </g>
</svg>
